PathFileType	4	(X/Y/Z)	c:/Users/goper/Files/vsCode/490R/osim_files/C08/C08_Fast_03.trc
DataRate	CameraRate	NumFrames	NumMarkers	Units                	OrigDataRate	OrigDataStartFrame	OrigNumFrames
250.00	250.00	4	36	mm	250.0	2031	2321
                Frame#	Time	LPSIS			LASIS			LTH1			LTH2			LTH3			LTH4			LLFE			LMFE			LSH1			LSH2			LSH3			LSH4			LLMAL			LMMAL			LCAL			LMTP5			LTOE			LMTP1			RPSIS			RASIS			RTH1			RTH2			RTH3			RTH4			RLFE			RMFE			RSH1			RSH2			RSH3			RSH4			RLMAL			RMMAL			RCAL			RMTP1			RTOE			RMTP5		
		X1	Y1	Z1	X2	Y2	Z2	X3	Y3	Z3	X4	Y4	Z4	X5	Y5	Z5	X6	Y6	Z6	X7	Y7	Z7	X8	Y8	Z8	X9	Y9	Z9	X10	Y10	Z10	X11	Y11	Z11	X12	Y12	Z12	X13	Y13	Z13	X14	Y14	Z14	X15	Y15	Z15	X16	Y16	Z16	X17	Y17	Z17	X18	Y18	Z18	X19	Y19	Z19	X20	Y20	Z20	X21	Y21	Z21	X22	Y22	Z22	X23	Y23	Z23	X24	Y24	Z24	X25	Y25	Z25	X26	Y26	Z26	X27	Y27	Z27	X28	Y28	Z28	X29	Y29	Z29	X30	Y30	Z30	X31	Y31	Z31	X32	Y32	Z32	X33	Y33	Z33	X34	Y34	Z34	X35	Y35	Z35	X36	Y36	Z36

2031	8.12000	0.00000	0.00000	0.00000	-4307.58838	996.55884	359.96924	0.00000	0.00000	0.00000	0.00000	0.00000	0.00000	0.00000	0.00000	0.00000	0.00000	0.00000	0.00000	0.00000	0.00000	0.00000	-4403.45654	534.56714	267.88358	0.00000	0.00000	0.00000	-1502.51794	740.93994	2792.02319	0.00000	0.00000	0.00000	0.00000	0.00000	0.00000	0.00000	0.00000	0.00000	0.00000	0.00000	0.00000	0.00000	0.00000	0.00000	0.00000	0.00000	0.00000	0.00000	0.00000	0.00000	0.00000	0.00000	0.00000	0.00000	0.00000	0.00000	-4330.61572	1010.23462	124.28582	-4244.86182	750.20587	50.69901	-4231.72266	671.84967	65.39032	-4217.49219	594.22565	71.41306	-4301.50000	666.53894	100.29642	-4202.38037	522.69861	82.11628	0.00000	0.00000	0.00000	-4123.96094	462.20731	57.50897	-4108.29150	415.46982	48.64122	-4179.16895	439.33755	70.98569	-4161.25830	398.26779	62.72412	0.00000	0.00000	0.00000	0.00000	0.00000	0.00000	0.00000	0.00000	0.00000	0.00000	0.00000	0.00000	0.00000	0.00000	0.00000	-4082.84082	46.30079	56.66627
2032	8.12400	0.00000	0.00000	0.00000	-4312.28125	996.18805	361.08350	0.00000	0.00000	0.00000	0.00000	0.00000	0.00000	0.00000	0.00000	0.00000	0.00000	0.00000	0.00000	0.00000	0.00000	0.00000	-4408.18066	534.16290	269.22095	0.00000	0.00000	0.00000	-1502.54968	740.96771	2792.01123	0.00000	0.00000	0.00000	0.00000	0.00000	0.00000	0.00000	0.00000	0.00000	0.00000	0.00000	0.00000	0.00000	0.00000	0.00000	0.00000	0.00000	0.00000	0.00000	0.00000	0.00000	0.00000	0.00000	0.00000	0.00000	0.00000	0.00000	-4335.41602	1010.06097	125.52795	-4249.67676	749.53992	52.35548	0.00000	0.00000	0.00000	-4223.89062	593.41278	72.11869	-4307.46436	666.12408	101.12399	-4208.91748	521.96484	82.61462	0.00000	0.00000	0.00000	-4129.94531	462.32397	58.10065	-4113.69678	415.70474	49.10025	-4184.88232	438.67947	71.42826	-4166.43066	397.88370	63.08110	0.00000	0.00000	0.00000	0.00000	0.00000	0.00000	0.00000	0.00000	0.00000	0.00000	0.00000	0.00000	0.00000	0.00000	0.00000	-4081.14062	46.65826	53.79240
2033	8.12800	0.00000	0.00000	0.00000	-4316.98877	995.78003	362.20691	0.00000	0.00000	0.00000	0.00000	0.00000	0.00000	0.00000	0.00000	0.00000	0.00000	0.00000	0.00000	0.00000	0.00000	0.00000	-4412.72266	533.66254	270.63788	0.00000	0.00000	0.00000	0.00000	0.00000	0.00000	0.00000	0.00000	0.00000	0.00000	0.00000	0.00000	0.00000	0.00000	0.00000	0.00000	0.00000	0.00000	0.00000	0.00000	0.00000	0.00000	0.00000	0.00000	0.00000	0.00000	0.00000	0.00000	0.00000	0.00000	0.00000	0.00000	0.00000	-4340.24316	1009.85632	126.76665	-4254.67822	748.63208	54.02505	0.00000	0.00000	0.00000	-4230.52490	592.54651	72.83150	-4313.55273	665.66187	101.90749	-4215.62256	521.15167	83.08549	0.00000	0.00000	0.00000	-4136.09961	462.42749	58.70921	-4119.14502	415.73044	49.47466	-4190.77881	438.03851	71.83467	-4171.74512	397.51480	63.40051	0.00000	0.00000	0.00000	0.00000	0.00000	0.00000	0.00000	0.00000	0.00000	0.00000	0.00000	0.00000	0.00000	0.00000	0.00000	-4081.41211	46.69588	53.74677
2034	8.13200	0.00000	0.00000	0.00000	-4321.69531	995.34808	363.33252	0.00000	0.00000	0.00000	0.00000	0.00000	0.00000	0.00000	0.00000	0.00000	0.00000	0.00000	0.00000	0.00000	0.00000	0.00000	-4417.04932	533.09351	272.08594	0.00000	0.00000	0.00000	0.00000	0.00000	0.00000	0.00000	0.00000	0.00000	0.00000	0.00000	0.00000	0.00000	0.00000	0.00000	0.00000	0.00000	0.00000	0.00000	0.00000	0.00000	0.00000	0.00000	0.00000	0.00000	0.00000	0.00000	0.00000	0.00000	0.00000	0.00000	0.00000	0.00000	-4345.05225	1009.63947	128.00139	-4259.77686	747.76428	55.78734	0.00000	0.00000	0.00000	-4237.35889	591.61536	73.56219	-4322.30078	665.96503	101.81686	-4222.59131	520.34357	83.52639	0.00000	0.00000	0.00000	-4142.42188	462.59216	59.31517	-4124.79883	415.89105	49.88229	-4196.80908	437.38354	72.18906	-4177.22656	397.15512	63.64756	0.00000	0.00000	0.00000	0.00000	0.00000	0.00000	0.00000	0.00000	0.00000	0.00000	0.00000	0.00000	0.00000	0.00000	0.00000	-4081.82300	46.81871	53.61325
